<svg width="652" height="404" viewBox="0 0 652 404" fill="none" xmlns="http://www.w3.org/2000/svg">
<g clip-path="url(#clip0_1227_9)">
<path d="M276 355.731L105.529 403.571L69 358.465L224.588 314.726L276 355.731Z" fill="#C97979"/>
<path d="M265.177 352.997L105.53 398.103C95.7886 388.262 98.765 365.754 101.471 355.731L265.177 311.991C259.765 330.58 262.922 346.163 265.177 352.997Z" fill="#F6F6F6"/>
<path d="M144.765 232.714L8.11768 266.885L115 359.832L271.941 311.992L144.765 232.714Z" fill="#C97979"/>
<path d="M0 298.323C0 281.921 5.41176 270.531 8.11765 266.886L115 359.832C105.259 372.954 104.627 394.459 105.529 403.571L0 298.323Z" fill="#925A5A"/>
<path d="M232.628 329.97H48.628C31.8052 329.97 34.609 291.418 38.1137 272.142H215.542L232.628 329.97Z" fill="#79B4C9"/>
<path d="M43.3722 293.171L48.6293 329.971C44.4236 333.125 38.6556 328.423 38.115 327.342C34.1722 319.456 35.4865 318.142 34.1722 312.885L24.9722 191.971H32.8579L43.3722 293.171Z" fill="#5A8392"/>
<path d="M222.115 326.028C220.012 308.154 221.239 293.171 222.115 287.914L43.3725 291.857C39.1668 299.217 41.6201 316.828 43.3725 324.714L222.115 326.028Z" fill="#F6F6F6"/>
<path d="M42.0571 294.485L32.8571 198.542L26.2856 145.971H180.057L235.257 290.542L42.0571 294.485Z" fill="#79B4C9"/>
<path d="M276 226.932L105.529 274.772L69 229.666L224.588 185.927L276 226.932Z" fill="#B079C9"/>
<path d="M265.177 224.198L105.53 269.304C95.7886 259.463 98.765 236.955 101.471 226.932L265.177 183.192C259.765 201.782 262.922 217.364 265.177 224.198Z" fill="#F6F6F6"/>
<path d="M143.257 121L8.11768 138.086L115 231.032L271.941 183.192L143.257 121Z" fill="#B079C9"/>
<path d="M0 169.522C0 153.119 5.41176 141.729 8.11765 138.084L115 231.03C105.259 244.152 104.627 265.657 105.529 274.77L0 169.522Z" fill="#795A92"/>
<path d="M623 152.5C623 243.627 556.514 317.5 474.5 317.5C392.486 317.5 326 243.627 326 152.5C326 61.373 392.486 0 474.5 0C556.514 0 623 61.373 623 152.5Z" fill="#EEC8AA"/>
<ellipse cx="446" cy="114" rx="68" ry="71" fill="white"/>
<ellipse cx="64.6129" cy="71.436" rx="64.6129" ry="71.436" transform="matrix(0.997279 -0.0737247 0.0793923 0.996843 458.783 47.5273)" fill="white"/>
<path d="M425 113.626C429.167 108.626 440.5 101.626 452.5 113.626" stroke="#1F191B" stroke-width="9" stroke-linecap="round"/>
<path d="M541 113.626C545.167 108.626 556.5 101.626 568.5 113.626" stroke="#1F191B" stroke-width="9" stroke-linecap="round"/>
<path d="M523 106.5C523 135.495 506.664 159 493.62 159C480.575 159 470 135.495 470 106.5C470 77.5051 480.575 54 493.62 54C506.664 54 523 77.5051 523 106.5Z" fill="#ECECEC"/>
<path d="M493.619 60C495.087 60 497.278 60.6895 499.996 62.835C502.67 64.9451 505.484 68.1885 508.06 72.4697C513.207 81.028 517 93.0822 517 106.5C517 119.918 513.207 131.972 508.06 140.53C505.484 144.812 502.67 148.055 499.996 150.165C497.278 152.31 495.087 153 493.619 153C490.929 153 486.495 150.286 482.39 141.161C478.538 132.599 476 120.35 476 106.5C476 92.65 478.538 80.4008 482.39 71.8389C486.495 62.7137 490.929 60.0003 493.619 60Z" stroke="#ECECEC" stroke-width="12"/>
<path d="M471.333 123.922C481.314 131.677 500.631 139.166 520.812 124.742C515.931 144.744 503.778 159 493.619 159C483.322 159 474.566 144.353 471.333 123.922Z" fill="#F28454"/>
<path d="M491 167.374C464.2 127.374 422.5 155.374 405 174.374C446.2 221.573 479.5 203.707 491 188.874C522.6 222.1 557.5 193.051 571 174.374C535.4 129.973 502.833 151.207 491 167.374Z" fill="#24AC89"/>
<path d="M334 155.5L302 171.5C302 231.1 352 275.667 377 290.5L492 280L643.5 161L620 147C608 153.4 583.667 161.667 573 165C522.5 180.781 497.5 200.5 488.5 210.5C476.1 197.3 441.833 189.833 433 189C390.5 184.991 353 167.167 334 155.5Z" fill="#F6F6F6"/>
<path d="M651.5 147L511.5 221.5V398.5L637 336L651.5 147Z" fill="#8AC979"/>
<path d="M511.5 221C498.3 229 478.333 227.667 470 226V400C493.2 407.6 507.333 402.167 511.5 398.5V221Z" fill="#5A925E"/>
<path d="M470 225.5L299 157.5L322 343L470 400V225.5Z" fill="#8AC979"/>
</g>
<defs>
<clipPath id="clip0_1227_9">
<rect width="652" height="404" fill="white"/>
</clipPath>
</defs>
</svg>
