<svg width="800" height="800" viewBox="0 0 800 800" fill="none" xmlns="http://www.w3.org/2000/svg">
<path d="M791.516 487.241C791.516 673.316 616.401 776.132 400.385 776.132C184.369 776.132 9.25391 673.316 9.25391 487.241C9.25391 301.166 184.369 150.322 400.385 150.322C616.401 150.322 791.516 301.166 791.516 487.241Z" fill="#B4B4B4"/>
<path d="M35.0743 35.6363C105.124 -14.2336 241.823 108.214 301.416 175.671L50.0495 354.629C15.8706 269.078 -34.9741 85.5077 35.0743 35.6363Z" fill="#B4B4B4"/>
<path d="M764.926 35.6363C694.876 -14.2336 558.177 108.214 498.584 175.671L749.951 354.629C784.129 269.078 834.974 85.5077 764.926 35.6363Z" fill="#B4B4B4"/>
<path d="M392.066 576.965C532.656 577.521 664.961 630.673 714.954 657.908C715.664 658.295 716.064 659.018 716.064 659.827V669.3C644.894 739.112 530.003 776.133 400.385 776.133C262.102 776.133 140.579 733.998 71.0269 654.86C124.853 626.903 252.664 577.501 388.176 576.965C389.013 576.962 389.742 577.424 390.122 578.107C390.501 577.424 391.23 576.962 392.066 576.965Z" fill="#F6F2DE"/>
<path d="M40.8318 612.386C81.8607 577.418 137.932 571.689 175.385 601.717C213.645 632.394 219.705 690.148 192.547 738.443C125.618 710.837 72.332 668.423 40.8318 612.386Z" fill="#DCAFB8"/>
<path d="M759.938 612.386C718.909 577.418 662.838 571.689 625.386 601.717C587.125 632.394 581.065 690.149 608.224 738.444C675.152 710.838 728.438 668.423 759.938 612.386Z" fill="#DCAFB8"/>
<ellipse cx="201.213" cy="543.119" rx="36.6165" ry="36.6166" fill="#202020"/>
<ellipse cx="599.557" cy="543.119" rx="36.6165" ry="36.6166" fill="#202020"/>
<path d="M423.261 594.352C434.733 594.352 435.337 602.877 435.337 607.14C435.337 613.908 417.546 638.135 403.952 639.51C403.047 639.779 401.732 639.84 399.83 639.77C397.928 639.84 396.613 639.779 395.707 639.51C382.113 638.133 364.323 613.908 364.323 607.14C364.323 602.877 364.927 594.352 376.399 594.352H423.261Z" fill="#202020"/>
<ellipse cx="276.767" cy="570.877" rx="7.76714" ry="8.87674" fill="#202020"/>
<ellipse cx="200.879" cy="420.185" rx="34.9521" ry="19.9727" transform="rotate(-16 200.879 420.185)" fill="#F6F2DE"/>
<ellipse cx="34.9521" cy="19.9727" rx="34.9521" ry="19.9727" transform="matrix(-0.961262 -0.275637 -0.275637 0.961262 639.435 410.62)" fill="#F6F2DE"/>
<path d="M35.0745 35.6373C92.2328 -5.05529 193.767 68.9835 261.577 134.26C151 179.48 68.7802 260.757 32.8665 306.796C2.66018 213.574 -23.7262 77.5008 35.0745 35.6373Z" fill="#818181"/>
<path d="M764.925 35.6359C707.768 -5.05539 606.236 68.981 538.425 134.257C649.001 179.475 731.22 260.75 767.135 306.791C797.341 213.569 823.725 77.4987 764.925 35.6359Z" fill="#818181"/>
</svg>
