<svg width="750" height="480" viewBox="0 0 750 480" fill="none" xmlns="http://www.w3.org/2000/svg">
<g clip-path="url(#clip0_1206_9)">
<rect width="750" height="480" fill="white"/>
<path fill-rule="evenodd" clip-rule="evenodd" d="M539 57C611.902 57 671 116.098 671 189C671 261.902 611.902 321 539 321C466.098 321 407 261.902 407 189C407 116.098 466.098 57 539 57ZM539 146.406C515.476 146.406 496.406 165.476 496.406 189C496.406 212.524 515.476 231.594 539 231.594C562.524 231.594 581.594 212.524 581.594 189C581.594 165.476 562.524 146.406 539 146.406Z" fill="#D5B2EE"/>
<path d="M519.364 226.805C525.24 229.863 531.918 231.594 539 231.594C540.13 231.594 541.25 231.548 542.358 231.462L549.479 320.587C546.022 320.859 542.527 320.999 539 320.999C527.358 320.999 516.069 319.489 505.315 316.659C508.123 288.498 512.873 253.108 519.364 226.805Z" fill="#A3B8EE"/>
<path d="M499.017 203.717C504.241 217.907 516.804 228.547 532.103 231.038L520.345 319.691C492.865 315.804 468.106 303.454 448.789 285.363C461.48 256.872 479.673 223.334 499.017 203.717Z" fill="#EBA07B"/>
<path d="M508.7 159.066C501.099 166.759 496.406 177.331 496.406 189C496.406 205.479 505.764 219.771 519.456 226.854L478.099 306.14C435.85 284.129 407 239.935 407 189C407 153.288 421.183 120.89 444.222 97.127L508.7 159.066Z" fill="#CCDA81"/>
<path d="M539 57C548 57 556.79 57.9019 565.284 59.6182C571.138 90.1155 565.3 122.973 556.243 150.043C550.971 147.706 545.137 146.405 539 146.405C524.392 146.405 511.504 153.761 503.831 164.968L431.536 112.333C455.476 78.8356 494.688 57.0001 539 57Z" fill="#F0D07F"/>
<path d="M539 57C611.901 57 671 116.098 671 189C671 225.838 655.908 259.149 631.573 283.093L568.776 219.453C576.684 211.72 581.594 200.934 581.594 189C581.594 165.476 562.524 146.406 539 146.406C538.859 146.406 538.719 146.407 538.578 146.408V57.0025C538.719 57.002 538.859 57 539 57Z" fill="#7EC3CA"/>
<path d="M496.464 191.254C497.287 207.035 506.701 220.54 520.117 227.186L480.124 307.172C437.995 286.142 408.69 243.248 407.072 193.354L496.464 191.254Z" fill="#95C36C"/>
<rect width="67.9363" height="269.909" transform="matrix(-1 0 0 1 210.053 210)" fill="#79B4C9"/>
<rect width="67.0182" height="187.284" transform="matrix(-1 0 0 1 287.17 292.626)" fill="#C97979"/>
<rect width="67.0182" height="134.955" transform="matrix(-1 0 0 1 132.018 344.955)" fill="#8AC979"/>
<path d="M460.442 462V458.932L471.964 446.318C473.317 444.841 474.43 443.557 475.305 442.466C476.18 441.364 476.828 440.33 477.249 439.364C477.68 438.386 477.896 437.364 477.896 436.295C477.896 435.068 477.601 434.006 477.01 433.108C476.43 432.21 475.635 431.517 474.624 431.028C473.612 430.54 472.476 430.295 471.214 430.295C469.874 430.295 468.703 430.574 467.703 431.131C466.714 431.676 465.947 432.443 465.402 433.432C464.868 434.42 464.601 435.58 464.601 436.909H460.578C460.578 434.864 461.05 433.068 461.993 431.523C462.936 429.977 464.22 428.773 465.845 427.909C467.482 427.045 469.317 426.614 471.351 426.614C473.396 426.614 475.209 427.045 476.788 427.909C478.368 428.773 479.607 429.937 480.504 431.403C481.402 432.869 481.851 434.5 481.851 436.295C481.851 437.58 481.618 438.835 481.152 440.062C480.697 441.278 479.902 442.636 478.766 444.136C477.641 445.625 476.078 447.443 474.078 449.591L466.237 457.977V458.25H482.464V462H460.442ZM548.891 462.477C546.322 462.477 544.135 461.778 542.328 460.381C540.521 458.972 539.141 456.932 538.186 454.261C537.232 451.58 536.754 448.341 536.754 444.545C536.754 440.773 537.232 437.551 538.186 434.881C539.152 432.199 540.538 430.153 542.345 428.744C544.163 427.324 546.345 426.614 548.891 426.614C551.436 426.614 553.612 427.324 555.419 428.744C557.237 430.153 558.624 432.199 559.578 434.881C560.544 437.551 561.027 440.773 561.027 444.545C561.027 448.341 560.55 451.58 559.595 454.261C558.641 456.932 557.26 458.972 555.453 460.381C553.646 461.778 551.459 462.477 548.891 462.477ZM548.891 458.727C551.436 458.727 553.413 457.5 554.822 455.045C556.232 452.591 556.936 449.091 556.936 444.545C556.936 441.523 556.612 438.949 555.964 436.824C555.328 434.699 554.408 433.08 553.203 431.966C552.01 430.852 550.572 430.295 548.891 430.295C546.368 430.295 544.396 431.54 542.976 434.028C541.555 436.506 540.845 440.011 540.845 444.545C540.845 447.568 541.163 450.136 541.8 452.25C542.436 454.364 543.351 455.972 544.544 457.074C545.749 458.176 547.197 458.727 548.891 458.727ZM615.504 462V458.932L627.027 446.318C628.379 444.841 629.493 443.557 630.368 442.466C631.243 441.364 631.891 440.33 632.311 439.364C632.743 438.386 632.959 437.364 632.959 436.295C632.959 435.068 632.663 434.006 632.072 433.108C631.493 432.21 630.697 431.517 629.686 431.028C628.675 430.54 627.538 430.295 626.277 430.295C624.936 430.295 623.766 430.574 622.766 431.131C621.777 431.676 621.01 432.443 620.464 433.432C619.93 434.42 619.663 435.58 619.663 436.909H615.641C615.641 434.864 616.112 433.068 617.055 431.523C617.999 429.977 619.283 428.773 620.908 427.909C622.544 427.045 624.379 426.614 626.413 426.614C628.459 426.614 630.271 427.045 631.851 427.909C633.43 428.773 634.669 429.937 635.567 431.403C636.464 432.869 636.913 434.5 636.913 436.295C636.913 437.58 636.68 438.835 636.214 440.062C635.76 441.278 634.964 442.636 633.828 444.136C632.703 445.625 631.141 447.443 629.141 449.591L621.3 457.977V458.25H637.527V462H615.504ZM690.999 454.841V451.364L706.339 427.091H708.862V432.477H707.158L695.567 450.818V451.091H716.226V454.841H690.999ZM707.43 462V453.784V452.165V427.091H711.453V462H707.43Z" fill="#808080"/>
<rect width="750" height="480" fill="white" fill-opacity="0.7"/>
<circle cx="49.4643" cy="49.4643" r="49.4643" transform="matrix(-1 0 0 1 269.995 101.289)" fill="#94C1BD"/>
<circle cx="4.12203" cy="4.12203" r="4.12203" transform="matrix(-1 0 0 1 254.881 153.502)" fill="#1F191B"/>
<circle cx="4.12203" cy="4.12203" r="4.12203" transform="matrix(-1 0 0 1 202.669 153.502)" fill="#1F191B"/>
<path d="M241.487 171.125C240.899 172.016 239.739 172.302 238.813 171.818L238.632 171.71L238.244 171.466C236.111 170.179 231.063 167.929 225.611 167.929C219.817 167.929 215.054 170.474 213.536 171.63C212.631 172.32 211.337 172.145 210.647 171.24C209.958 170.334 210.132 169.04 211.038 168.351C213.129 166.758 218.748 163.807 225.611 163.807C232.025 163.807 237.818 166.387 240.425 167.968L240.902 168.27L241.073 168.395C241.882 169.055 242.075 170.235 241.487 171.125Z" fill="#1F191B"/>
<circle cx="139.464" cy="186.478" r="49.4643" fill="#F3E65D"/>
<circle cx="109.236" cy="193.348" r="4.12203" fill="#1F191B"/>
<circle cx="161.448" cy="193.348" r="4.12203" fill="#1F191B"/>
<path d="M118.508 200.457C119.096 199.566 120.256 199.28 121.182 199.764L121.363 199.872L121.751 200.116C123.885 201.403 128.932 203.653 134.384 203.653C140.178 203.653 144.941 201.108 146.459 199.952C147.364 199.263 148.658 199.437 149.348 200.343C150.037 201.248 149.863 202.542 148.957 203.231C146.866 204.824 141.247 207.775 134.384 207.775C127.971 207.775 122.177 205.195 119.571 203.614L119.093 203.312L118.922 203.187C118.113 202.527 117.92 201.347 118.508 200.457Z" fill="#1F191B"/>
<ellipse cx="388.392" cy="172.794" rx="66.1823" ry="51.9686" transform="rotate(-9.56445 388.392 172.794)" fill="#53746C"/>
<path d="M412.217 143.103C421.029 143.721 439.045 151.015 440.607 175.255C440.989 179.802 440.636 191.289 436.917 205.018C426.837 214.393 412.98 221.351 397.027 224.04C382.758 226.444 368.954 225.071 357.185 220.78C348.211 208.231 343.69 196.467 342.495 191.787C336.028 168.374 350.657 155.579 358.781 152.107L388.303 164.25L412.217 143.103Z" fill="#F0DFC8"/>
<path d="M325.517 124.038C319.45 128.664 324.248 149.476 327.406 159.304L356.644 135.009C354.184 131.099 349.249 125.875 344.356 123.566C340.604 121.796 331.584 119.412 325.517 124.038Z" fill="#53746C"/>
<path d="M432.104 106.078C439.352 108.46 441.639 129.696 441.877 140.016L406.291 126.644C407.334 122.144 410.284 115.591 414.151 111.806C417.115 108.904 424.856 103.696 432.104 106.078Z" fill="#53746C"/>
<circle cx="374.083" cy="190.258" r="3.99759" transform="rotate(-9.56445 374.083 190.258)" fill="#1F191B"/>
<circle cx="421.388" cy="182.288" r="3.99759" transform="rotate(-9.56445 421.388 182.288)" fill="#1F191B"/>
<path d="M382.673 194.821C382.926 193.873 383.899 193.31 384.847 193.563C395.006 196.277 404.717 194.952 413.127 188.825C413.92 188.247 415.032 188.422 415.609 189.215C416.187 190.008 416.012 191.119 415.219 191.697C405.834 198.535 394.989 199.951 383.93 196.996C382.982 196.742 382.419 195.769 382.673 194.821Z" fill="#1F191B"/>
<path d="M369.4 84.1379C398.137 81.4578 408.916 103.905 410.714 115.464C405.776 131.07 392.714 136.064 386.8 136.61C371.032 139.267 358.56 133.861 354.295 130.826L351.948 124.916C350.019 124.16 346.931 137.022 345.628 143.547C342.966 157.689 338.8 163.616 337.049 164.812C334.545 169.198 331.964 165.819 330.986 163.582C328.707 162.885 328.708 155.407 328.994 151.756C329.281 149.185 325.636 138.958 323.778 134.167C324.526 127.915 328.053 115.879 329.723 110.643C335.587 89.8355 358.618 84.3031 369.4 84.1379Z" fill="#71B9F0"/>
<ellipse cx="334.494" cy="168.361" rx="6.66264" ry="5.77429" transform="rotate(1.56888 334.494 168.361)" fill="#D1E6E9"/>
<path d="M412.504 126.09C407.735 134.177 392.172 139.758 384.836 140.994C377.499 142.231 360.967 142.057 353.812 135.98L351.947 124.915C355.653 127.957 367.109 133.739 383.158 131.035C399.206 128.331 408.135 119.114 410.64 115.025L412.504 126.09Z" fill="#D1E6E9"/>
<path d="M355.797 112.516C356.212 112.151 356.253 111.519 355.888 111.104C355.523 110.69 354.891 110.649 354.477 111.014L355.797 112.516ZM351.947 124.914L352.933 124.748C352.876 124.41 352.773 124.038 352.668 123.679C352.559 123.302 352.442 122.921 352.33 122.495C352.108 121.655 351.923 120.72 351.932 119.7C351.949 117.719 352.697 115.242 355.797 112.516L355.137 111.765L354.477 111.014C350.986 114.083 349.954 117.086 349.932 119.683C349.921 120.953 350.152 122.081 350.396 123.006C350.517 123.464 350.647 123.89 350.748 124.238C350.854 124.603 350.926 124.871 350.961 125.081L351.947 124.914Z" fill="#5EAAE5"/>
<path d="M523.526 169.131C532.144 122.438 566.259 114.777 582.239 116.783C589.132 116.881 601.654 122.95 607.053 125.972C639.329 150.474 635.143 180.792 629.016 192.888C615.329 218.587 582.769 219.238 568.2 216.351C527.899 209.424 521.625 181.985 523.526 169.131Z" fill="#E3AA6D"/>
<path d="M582.239 116.783C589.132 116.882 601.654 122.95 607.053 125.972C624.196 138.986 631.053 153.641 632.796 166.334C627.264 193.439 592.416 211.347 552.905 206.71C547.898 206.122 543.048 205.197 538.397 203.977C524.638 192.834 522.255 177.724 523.526 169.131C532.144 122.438 566.259 114.777 582.239 116.783Z" fill="#F4C588"/>
<path d="M569.638 136.895L554.593 147.833L538.951 148.82L544.564 161.123L538.018 180.821L556.587 175.943L572.172 190.475L574.622 169.591L590.651 162.297L573.41 152.864L569.638 136.895Z" fill="#674F45"/>
<path d="M594.907 79.0373C580.104 84.8323 578.563 103.535 579.643 112.161C582.066 115.584 600.883 121.716 609.989 124.354C614.649 116.74 628.013 108.946 634.113 106C628.645 88.4105 605.697 80.6959 594.907 79.0373Z" fill="#F4C588"/>
<path d="M576.638 111.025C572.032 115.506 574.114 118.052 575.73 118.765C602.706 126.246 611.267 133.528 611.449 131.98L612.357 124.24C590.884 111.991 579.597 110.326 576.638 111.025Z" fill="#C75240"/>
<path d="M609.377 132.913L612.38 127.381C620.813 133.078 630.209 148.173 633.853 155.009C631.013 157.814 627.982 158.243 626.821 158.106C620.624 141.373 612.61 134.339 609.377 132.913Z" fill="#C75240"/>
<path d="M610.386 157.748C609.873 146.075 605.811 134.326 603.845 129.911C604.264 129.019 608.617 128.248 610.742 127.974C615.388 139.19 617.721 152.07 618.307 157.108C616.195 159.057 612.146 158.347 610.386 157.748Z" fill="#C75240"/>
<path d="M601.091 129.978C601.345 127.811 603.82 122.321 605.026 119.847C609.051 120.32 612.971 122.349 614.428 123.304C615.32 123.723 613.36 129.064 612.268 131.682C608.436 132.017 600.837 132.145 601.091 129.978Z" fill="#AC3C2F"/>
<circle cx="176.235" cy="341.242" r="67.0571" fill="#1A3DBD"/>
<mask id="mask0_1206_9" style="mask-type:alpha" maskUnits="userSpaceOnUse" x="109" y="274" width="135" height="135">
<circle cx="176.235" cy="341.242" r="67.0571" fill="#1E3896"/>
</mask>
<g mask="url(#mask0_1206_9)">
<path d="M164.721 340.493C173.615 337.638 178.218 344.336 179.408 348.042C180.926 350.683 185.491 355.422 191.755 353.611C197.903 351.437 198.857 344.926 198.554 341.896C197.365 338.19 197.21 330.065 206.103 327.209C214.997 324.354 219.6 331.051 220.79 334.757L227.135 354.521C229.306 371.562 219.336 380.609 210.232 384.638L235.367 462.931C234.391 463.885 231.735 465.98 228.546 467.15L228.55 467.164C228.45 467.196 228.349 467.222 228.248 467.252C228.143 467.289 228.039 467.328 227.933 467.362L227.928 467.347C224.654 468.252 221.274 468.096 219.926 467.888L194.791 389.594C185.043 391.617 171.671 390.064 163.518 374.945L157.173 355.18C155.983 351.475 155.827 343.349 164.721 340.493Z" fill="#FCFCFC"/>
<circle cx="181.01" cy="370.012" r="4.54084" transform="rotate(-17.7983 181.01 370.012)" fill="#1F191B"/>
<circle cx="4.54084" cy="4.54084" r="4.54084" transform="matrix(-0.952138 0.305667 0.305667 0.952138 212.975 354.98)" fill="#1F191B"/>
</g>
<path d="M140.192 334.46L140.188 334.637C140.098 336.449 138.633 337.89 136.84 337.89C135.046 337.89 133.581 336.449 133.491 334.637L133.487 334.46V303.599C133.487 301.705 134.988 300.17 136.84 300.17C138.691 300.17 140.192 301.705 140.192 303.599V334.46Z" fill="white"/>
<path d="M147.736 302.431V334.79C147.736 336.773 150.137 337.792 151.591 336.426L168.819 320.246C169.766 319.357 169.766 317.864 168.819 316.975L151.591 300.795C150.137 299.43 147.736 300.448 147.736 302.431Z" fill="white"/>
<rect x="514.711" y="306.302" width="121.173" height="85.8801" rx="8" fill="#5E5E5E"/>
<path d="M572.289 303.472L572.128 303.651C570.509 305.542 570.641 308.393 572.469 310.124C574.297 311.856 577.15 311.834 578.952 310.116L579.122 309.944L593.825 294.424C595.613 292.537 595.532 289.559 593.645 287.772C591.759 285.984 588.78 286.065 586.993 287.951L572.289 303.472Z" fill="#5E5E5E"/>
<path d="M540.286 273.461C542.065 271.567 545.042 271.474 546.936 273.253L578.9 303.279C580.794 305.059 580.888 308.037 579.108 309.931C577.329 311.825 574.35 311.917 572.456 310.138L540.494 280.112C538.599 278.333 538.506 275.356 540.286 273.461Z" fill="#5E5E5E"/>
<rect x="524.122" y="316.682" width="83.5272" height="64.7042" rx="10" fill="#F6F6F6"/>
<circle cx="621.767" cy="338.065" r="7.05864" fill="#8AC979"/>
<circle cx="621.767" cy="356.888" r="7.05864" fill="#C97979"/>
<path d="M447.526 383.057L371.231 404.468L354.882 384.28L424.516 364.704L447.526 383.057Z" fill="#8AC979"/>
<path d="M442.682 381.833L371.231 402.021C366.871 397.616 368.203 387.543 369.414 383.056L442.682 363.48C440.26 371.8 441.673 378.774 442.682 381.833Z" fill="#F6F6F6"/>
<path d="M388.791 327.999L327.633 343.293L375.469 384.892L445.71 363.48L388.791 327.999Z" fill="#8AC979"/>
<path d="M324 357.363C324 350.022 326.422 344.924 327.633 343.293L375.469 384.892C371.109 390.765 370.827 400.39 371.231 404.468L324 357.363Z" fill="#5A925E"/>
<path d="M428.115 371.528H345.764C338.235 371.528 339.49 354.274 341.059 345.646H420.468L428.115 371.528Z" fill="#C97979"/>
<path d="M343.411 355.058L345.764 371.528C343.882 372.939 341.3 370.835 341.058 370.351C339.294 366.822 339.882 366.234 339.294 363.881L335.176 309.765H338.706L343.411 355.058Z" fill="#925A5A"/>
<path d="M423.409 369.762C422.468 361.763 423.017 355.057 423.409 352.704L343.411 354.469C341.529 357.763 342.627 365.645 343.411 369.174L423.409 369.762Z" fill="#F6F6F6"/>
<path d="M342.823 355.646L338.706 312.706L335.764 289.177H404.586L429.291 353.881L342.823 355.646Z" fill="#C97979"/>
<path d="M447.526 325.412L371.231 346.823L354.882 326.636L424.516 307.06L447.526 325.412Z" fill="#79B4C9"/>
<path d="M442.682 324.187L371.231 344.375C366.871 339.971 368.203 329.897 369.414 325.411L442.682 305.835C440.26 314.155 441.673 321.129 442.682 324.187Z" fill="#F6F6F6"/>
<path d="M388.116 278L327.633 285.647L375.469 327.246L445.71 305.835L388.116 278Z" fill="#79B4C9"/>
<path d="M324 299.718C324 292.377 326.422 287.279 327.633 285.647L375.469 327.246C371.109 333.119 370.827 342.744 371.231 346.822L324 299.718Z" fill="#5A8392"/>
</g>
<defs>
<clipPath id="clip0_1206_9">
<rect width="750" height="480" fill="white"/>
</clipPath>
</defs>
</svg>
