<svg width="750" height="480" viewBox="0 0 750 480" fill="none" xmlns="http://www.w3.org/2000/svg">
<rect width="750" height="480" fill="white"/>
<path fill-rule="evenodd" clip-rule="evenodd" d="M523.981 111.13C596.882 111.13 655.981 170.228 655.981 243.13C655.981 316.031 596.882 375.13 523.981 375.13C451.079 375.13 391.981 316.031 391.981 243.13C391.981 170.228 451.079 111.13 523.981 111.13ZM523.981 200.536C500.457 200.536 481.386 219.606 481.386 243.13C481.386 266.654 500.457 285.724 523.981 285.724C547.505 285.724 566.575 266.654 566.575 243.13C566.575 219.606 547.505 200.536 523.981 200.536Z" fill="#D5B2EE"/>
<path d="M504.345 280.935C510.221 283.993 516.898 285.723 523.981 285.723C525.111 285.723 526.231 285.678 527.339 285.592L534.46 374.717C531.002 374.989 527.508 375.129 523.981 375.129C512.339 375.129 501.05 373.619 490.296 370.789C493.104 342.628 497.854 307.238 504.345 280.935Z" fill="#A3B8EE"/>
<path d="M483.997 257.847C489.222 272.037 501.784 282.677 517.084 285.168L505.326 373.821C477.845 369.934 453.087 357.584 433.77 339.493C446.461 311.002 464.654 277.464 483.997 257.847Z" fill="#EBA07B"/>
<path d="M493.681 213.196C486.08 220.889 481.386 231.461 481.386 243.13C481.386 259.609 490.745 273.901 504.436 280.984L463.08 360.269C420.831 338.259 391.981 294.065 391.981 243.13C391.981 207.418 406.164 175.02 429.203 151.257L493.681 213.196Z" fill="#CCDA81"/>
<path d="M523.98 111.13C532.981 111.13 541.77 112.032 550.265 113.748C556.119 144.245 550.28 177.103 541.224 204.173C535.952 201.836 530.118 200.535 523.98 200.535C509.373 200.535 496.484 207.891 488.812 219.098L416.517 166.463C440.457 132.966 479.668 111.13 523.98 111.13Z" fill="#F0D07F"/>
<path d="M523.981 111.13C596.882 111.13 655.981 170.228 655.981 243.13C655.981 279.967 640.889 313.279 616.553 337.223L553.757 273.583C561.665 265.85 566.575 255.064 566.575 243.13C566.575 219.606 547.505 200.536 523.981 200.536C523.84 200.536 523.699 200.537 523.559 200.538V111.132C523.699 111.132 523.84 111.13 523.981 111.13Z" fill="#7EC3CA"/>
<path d="M481.445 245.384C482.268 261.165 491.682 274.67 505.098 281.316L465.105 361.302C422.976 340.272 393.67 297.378 392.053 247.484L481.445 245.384Z" fill="#95C36C"/>
<rect width="67.9363" height="269.909" transform="matrix(-1 0 0 1 239.053 105)" fill="#79B4C9"/>
<rect width="67.0182" height="187.284" transform="matrix(-1 0 0 1 316.17 187.626)" fill="#C97979"/>
<rect width="67.0182" height="134.955" transform="matrix(-1 0 0 1 161.018 239.955)" fill="#8AC979"/>
</svg>
