<svg width="750" height="480" viewBox="0 0 750 480" fill="none" xmlns="http://www.w3.org/2000/svg">
<g clip-path="url(#clip0_1224_9)">
<rect width="750" height="480" fill="white"/>
<path d="M439.165 441.682L435.551 442.705C435.324 442.102 434.989 441.517 434.545 440.949C434.114 440.369 433.523 439.892 432.773 439.517C432.023 439.142 431.062 438.955 429.892 438.955C428.29 438.955 426.955 439.324 425.886 440.062C424.83 440.79 424.301 441.716 424.301 442.841C424.301 443.841 424.665 444.631 425.392 445.21C426.119 445.79 427.256 446.273 428.801 446.659L432.688 447.614C435.028 448.182 436.773 449.051 437.92 450.222C439.068 451.381 439.642 452.875 439.642 454.705C439.642 456.205 439.21 457.545 438.347 458.727C437.494 459.909 436.301 460.841 434.767 461.523C433.233 462.205 431.449 462.545 429.415 462.545C426.744 462.545 424.534 461.966 422.784 460.807C421.034 459.648 419.926 457.955 419.46 455.727L423.278 454.773C423.642 456.182 424.33 457.239 425.341 457.943C426.364 458.648 427.699 459 429.347 459C431.222 459 432.71 458.602 433.812 457.807C434.926 457 435.483 456.034 435.483 454.909C435.483 454 435.165 453.239 434.528 452.625C433.892 452 432.915 451.534 431.597 451.227L427.233 450.205C424.835 449.636 423.074 448.756 421.949 447.562C420.835 446.358 420.278 444.852 420.278 443.045C420.278 441.568 420.693 440.261 421.523 439.125C422.364 437.989 423.506 437.097 424.949 436.449C426.403 435.801 428.051 435.477 429.892 435.477C432.483 435.477 434.517 436.045 435.994 437.182C437.483 438.318 438.54 439.818 439.165 441.682ZM497.72 446.25V462H493.697V427.091H497.72V439.909H498.061C498.675 438.557 499.595 437.483 500.822 436.688C502.061 435.881 503.709 435.477 505.766 435.477C507.55 435.477 509.112 435.835 510.453 436.551C511.794 437.256 512.834 438.341 513.572 439.807C514.322 441.261 514.697 443.114 514.697 445.364V462H510.675V445.636C510.675 443.557 510.135 441.949 509.055 440.812C507.987 439.665 506.504 439.091 504.607 439.091C503.288 439.091 502.107 439.369 501.061 439.926C500.027 440.483 499.209 441.295 498.607 442.364C498.016 443.432 497.72 444.727 497.72 446.25ZM581.034 462.545C578.511 462.545 576.335 461.989 574.506 460.875C572.688 459.75 571.284 458.182 570.295 456.17C569.318 454.148 568.83 451.795 568.83 449.114C568.83 446.432 569.318 444.068 570.295 442.023C571.284 439.966 572.659 438.364 574.42 437.216C576.193 436.057 578.261 435.477 580.625 435.477C581.989 435.477 583.335 435.705 584.665 436.159C585.994 436.614 587.205 437.352 588.295 438.375C589.386 439.386 590.256 440.727 590.903 442.398C591.551 444.068 591.875 446.125 591.875 448.568V450.273H571.693V446.795H587.784C587.784 445.318 587.489 444 586.898 442.841C586.318 441.682 585.489 440.767 584.409 440.097C583.341 439.426 582.08 439.091 580.625 439.091C579.023 439.091 577.636 439.489 576.466 440.284C575.307 441.068 574.415 442.091 573.79 443.352C573.165 444.614 572.852 445.966 572.852 447.409V449.727C572.852 451.705 573.193 453.381 573.875 454.756C574.568 456.119 575.528 457.159 576.756 457.875C577.983 458.58 579.409 458.932 581.034 458.932C582.091 458.932 583.045 458.784 583.898 458.489C584.761 458.182 585.506 457.727 586.131 457.125C586.756 456.511 587.239 455.75 587.58 454.841L591.466 455.932C591.057 457.25 590.369 458.409 589.403 459.409C588.438 460.398 587.244 461.17 585.824 461.727C584.403 462.273 582.807 462.545 581.034 462.545ZM650.017 427.091V462H645.994V427.091H650.017ZM717.044 435.818V439.227H702.93V435.818H717.044ZM707.158 462V432.205C707.158 430.705 707.51 429.455 708.214 428.455C708.919 427.455 709.834 426.705 710.959 426.205C712.084 425.705 713.271 425.455 714.521 425.455C715.51 425.455 716.317 425.534 716.942 425.693C717.567 425.852 718.033 426 718.339 426.136L717.18 429.614C716.976 429.545 716.692 429.46 716.328 429.358C715.976 429.256 715.51 429.205 714.93 429.205C713.601 429.205 712.641 429.54 712.05 430.21C711.47 430.881 711.18 431.864 711.18 433.159V462H707.158Z" fill="#808080"/>
<rect width="750" height="480" fill="white" fill-opacity="0.7"/>
<path d="M328.153 369.218L184.764 409.458L154.038 371.517L284.909 334.727L328.153 369.218Z" fill="#C97979"/>
<path d="M319.05 366.917L184.765 404.858C176.571 396.58 179.075 377.648 181.351 369.217L319.05 332.426C314.497 348.062 317.153 361.169 319.05 366.917Z" fill="#F6F6F6"/>
<path d="M217.767 265.743L102.828 294.486L192.731 372.666L324.74 332.426L217.767 265.743Z" fill="#C97979"/>
<path d="M96 320.929C96 307.132 100.552 297.551 102.828 294.485L192.731 372.666C184.537 383.703 184.006 401.792 184.765 409.457L96 320.929Z" fill="#925A5A"/>
<path d="M291.671 347.549H136.902C122.752 347.549 125.111 315.121 128.059 298.907H277.3L291.671 347.549Z" fill="#79B4C9"/>
<path d="M132.482 316.596L136.904 347.549C133.366 350.203 128.515 346.248 128.06 345.338C124.743 338.705 125.849 337.6 124.743 333.178L117.005 231.473H123.638L132.482 316.596Z" fill="#5A8392"/>
<path d="M282.829 344.232C281.06 329.197 282.092 316.595 282.829 312.173L132.482 315.489C128.945 321.68 131.008 336.494 132.482 343.127L282.829 344.232Z" fill="#F6F6F6"/>
<path d="M131.376 317.702L123.638 237.001L118.11 192.781H247.453L293.884 314.385L131.376 317.702Z" fill="#79B4C9"/>
<path d="M328.153 260.88L184.764 301.12L154.038 263.179L284.909 226.389L328.153 260.88Z" fill="#B079C9"/>
<path d="M319.05 258.58L184.765 296.521C176.571 288.243 179.075 269.311 181.351 260.88L319.05 224.089C314.497 239.725 317.153 252.832 319.05 258.58Z" fill="#F6F6F6"/>
<path d="M216.499 171.776L102.828 186.148L192.731 264.328L324.74 224.088L216.499 171.776Z" fill="#B079C9"/>
<path d="M96 212.591C96 198.794 100.552 189.213 102.828 186.147L192.731 264.328C184.537 275.365 184.006 293.454 184.765 301.119L96 212.591Z" fill="#795A92"/>
<path d="M620.027 198.273C620.027 274.923 564.104 337.061 495.119 337.061C426.133 337.061 370.21 274.923 370.21 198.273C370.21 121.623 426.133 70 495.119 70C564.104 70 620.027 121.623 620.027 198.273Z" fill="#EEC8AA"/>
<ellipse cx="471.146" cy="165.89" rx="57.1972" ry="59.7206" fill="white"/>
<ellipse cx="54.3482" cy="60.0873" rx="54.3482" ry="60.0873" transform="matrix(0.997279 -0.0737247 0.0793923 0.996843 481.899 109.977)" fill="white"/>
<circle cx="465.259" cy="162.525" r="12.9582" fill="#1F191B" stroke="#808080"/>
<circle cx="562.83" cy="162.525" r="12.9582" fill="#1F191B" stroke="#808080"/>
<path d="M535.914 159.58C535.914 183.968 522.173 203.739 511.201 203.739C500.228 203.739 491.333 183.968 491.333 159.58C491.333 135.191 500.228 115.42 511.201 115.42C522.173 115.42 535.914 135.191 535.914 159.58Z" fill="#ECECEC"/>
<path d="M511.201 121.42C512.151 121.42 513.79 121.876 515.974 123.6C518.113 125.288 520.41 127.92 522.531 131.446C526.771 138.495 529.913 148.465 529.914 159.579C529.914 170.694 526.771 180.664 522.531 187.713C520.41 191.239 518.113 193.872 515.974 195.56C513.79 197.283 512.151 197.739 511.201 197.739C509.547 197.739 506.051 195.96 502.625 188.344C499.452 181.291 497.333 171.126 497.333 159.579C497.334 148.032 499.452 137.868 502.625 130.815C506.051 123.199 509.547 121.42 511.201 121.42Z" stroke="#ECECEC" stroke-width="12"/>
<path d="M492.455 174.235C500.851 180.759 517.099 187.057 534.073 174.925C529.968 191.75 519.746 203.741 511.201 203.741C502.54 203.74 495.174 191.421 492.455 174.235Z" fill="#F28454"/>
<path d="M508.997 210.783C486.455 177.138 451.38 200.69 436.66 216.671C471.314 256.373 499.324 241.345 508.997 228.868C535.577 256.816 564.933 232.382 576.288 216.671C546.344 179.325 518.951 197.185 508.997 210.783Z" fill="#24AC89"/>
<path d="M376.939 200.796L350.023 214.254C350.023 264.386 392.08 301.873 413.108 314.349L509.839 305.518L637.271 205.422L617.504 193.646C607.41 199.03 586.943 205.983 577.971 208.787C535.493 222.061 514.465 238.647 506.895 247.059C496.465 235.956 467.642 229.675 460.212 228.974C424.463 225.602 392.921 210.609 376.939 200.796Z" fill="#F6F6F6"/>
<path d="M644 193.646L526.241 256.311V405.192L631.804 352.621L644 193.646Z" fill="#8AC979"/>
<path d="M526.241 255.892C515.138 262.621 498.343 261.499 491.333 260.097V406.455C510.848 412.848 522.736 408.277 526.241 405.193V255.892Z" fill="#5A925E"/>
<path d="M491.334 259.676L347.5 202.479L366.846 358.509L491.334 406.454V259.676Z" fill="#8AC979"/>
</g>
<defs>
<clipPath id="clip0_1224_9">
<rect width="750" height="480" fill="white"/>
</clipPath>
</defs>
</svg>
