<svg width="130" height="162" viewBox="0 0 130 162" fill="none" xmlns="http://www.w3.org/2000/svg">
<g clip-path="url(#clip0_1140_90)">
<path d="M0.697754 105.17C10.739 50.7681 50.486 41.8422 69.1043 44.1796C77.1355 44.2946 91.7245 51.3651 98.0152 54.8859C135.619 83.4329 130.742 118.757 123.603 132.85C107.657 162.791 69.7217 163.55 52.7474 160.187C5.79247 152.116 -1.51691 120.147 0.697754 105.17Z" fill="#E3AA6D"/>
<path d="M69.1044 44.1796C77.1354 44.2946 91.7245 51.365 98.0152 54.8859C117.988 70.0483 125.977 87.1228 128.007 101.912C121.563 133.492 80.9612 154.356 34.9272 148.954C29.0935 148.269 23.4428 147.191 18.0237 145.77C1.99375 132.787 -0.78273 115.182 0.697752 105.17C10.7391 50.7683 50.4861 41.8423 69.1044 44.1796Z" fill="#F4C588"/>
<path d="M54.4222 67.6133L36.893 80.3563L18.6688 81.5065L25.2089 95.8409L17.5821 118.791L39.2162 113.107L57.3739 130.039L60.2295 105.707L78.9049 97.2092L58.8166 86.2182L54.4222 67.6133Z" fill="#674F45"/>
<path d="M83.864 0.20317C66.6168 6.95497 64.8213 28.745 66.0795 38.7961C68.9024 42.784 90.8266 49.9278 101.436 53.0012C106.865 44.1311 122.435 35.0495 129.542 31.6174C123.171 11.1239 96.4355 2.13563 83.864 0.20317Z" fill="#F4C588"/>
<path d="M62.5783 37.4719C57.212 42.6927 59.6368 45.6588 61.5201 46.4893C92.9498 55.2057 102.924 63.6896 103.136 61.8861L104.194 52.8687C79.1754 38.597 66.0258 36.6576 62.5783 37.4719Z" fill="#C75240"/>
<path d="M100.723 62.9735L104.222 56.5279C114.047 63.166 124.994 80.7533 129.24 88.7172C125.931 91.9855 122.399 92.4851 121.046 92.3263C113.827 72.8302 104.489 64.6344 100.723 62.9735Z" fill="#C75240"/>
<path d="M101.898 91.9078C101.3 78.3081 96.5681 64.6193 94.277 59.4749C94.7647 58.4352 99.837 57.5373 102.312 57.2184C107.726 70.2863 110.444 85.2928 111.127 91.1626C108.666 93.4335 103.949 92.6056 101.898 91.9078Z" fill="#C75240"/>
<path d="M91.0682 59.5553C91.3645 57.0304 94.2481 50.6346 95.6529 47.7522C100.342 48.3025 104.91 50.6669 106.607 51.7803C107.647 52.268 105.363 58.4904 104.09 61.5407C99.6262 61.9309 90.7718 62.0802 91.0682 59.5553Z" fill="#AC3C2F"/>
</g>
<defs>
<clipPath id="clip0_1140_90">
<rect width="130" height="162" fill="white"/>
</clipPath>
</defs>
</svg>
