<svg width="105" height="108" viewBox="0 0 105 108" fill="none" xmlns="http://www.w3.org/2000/svg">
<path d="M105 89.3002L40.1471 107.5L26.25 90.3402L85.4412 73.7002L105 89.3002Z" fill="#8AC979"/>
<path d="M100.882 88.2602L40.1472 105.42C36.4413 101.676 37.5736 93.1135 38.603 89.3002L100.882 72.6602C98.8236 79.7322 100.025 85.6602 100.882 88.2602Z" fill="#F6F6F6"/>
<path d="M55.0736 42.5L3.08826 55.5L43.75 90.86L103.456 72.66L55.0736 42.5Z" fill="#8AC979"/>
<path d="M0 67.46C0 61.22 2.05882 56.8867 3.08824 55.5L43.75 90.86C40.0441 95.852 39.8039 104.033 40.1471 107.5L0 67.46Z" fill="#5A925E"/>
<path d="M88.5 79.5H18.5C12.1 79.5 13.1666 64.8333 14.5 57.5H82L88.5 79.5Z" fill="#C97979"/>
<path d="M16.5 65.5L18.5 79.5C16.9 80.7 14.7057 78.9113 14.5 78.5C13 75.5 13.5 75 13 73L9.5 27H12.5L16.5 65.5Z" fill="#925A5A"/>
<path d="M84.5 78C83.7 71.2 84.1666 65.5 84.5 63.5L16.5 65C14.9 67.8 15.8334 74.5 16.5 77.5L84.5 78Z" fill="#F6F6F6"/>
<path d="M16 66L12.5 29.5L10 9.5H68.5L89.5 64.5L16 66Z" fill="#C97979"/>
<path d="M105 40.3002L40.1471 58.5002L26.25 41.3402L85.4412 24.7002L105 40.3002Z" fill="#79B4C9"/>
<path d="M100.882 39.2602L40.1472 56.4202C36.4413 52.6762 37.5736 44.1135 38.603 40.3002L100.882 23.6602C98.8236 30.7322 100.025 36.6602 100.882 39.2602Z" fill="#F6F6F6"/>
<path d="M54.5001 0L3.08826 6.5L43.75 41.86L103.456 23.66L54.5001 0Z" fill="#79B4C9"/>
<path d="M0 18.46C0 12.22 2.05882 7.88667 3.08824 6.5L43.75 41.86C40.0441 46.852 39.8039 55.0333 40.1471 58.5L0 18.46Z" fill="#5A8392"/>
</svg>
