<svg width="120" height="112" viewBox="0 0 120 112" fill="none" xmlns="http://www.w3.org/2000/svg">
<path d="M12.2764 1.19283C16.4764 -2.17267 34.4069 12.7557 42.8472 20.6406C45.4107 32.3361 21.1114 47.6533 12.2764 49.3145C8.10301 37.6999 8.07642 4.55834 12.2764 1.19283Z" fill="#1D1A1B"/>
<path d="M107.724 1.24557C103.524 -2.11993 85.5931 12.8085 77.1528 20.6934C74.5893 32.3888 98.8886 47.706 107.724 49.3673C111.897 37.7526 111.924 4.61107 107.724 1.24557Z" fill="#1D1A1B"/>
<path d="M112.668 61.0212C112.668 88.7664 89.1933 111.258 60.2358 111.258C31.2784 111.258 7.80371 88.7664 7.80371 61.0212C7.80371 33.2761 31.2784 17.5596 60.2358 17.5596C89.1933 17.5596 112.668 33.2761 112.668 61.0212Z" fill="white"/>
<mask id="mask0_1178_332" style="mask-type:alpha" maskUnits="userSpaceOnUse" x="7" y="17" width="106" height="95">
<path d="M112.668 61.0212C112.668 88.7664 89.1933 111.258 60.2358 111.258C31.2784 111.258 7.80371 88.7664 7.80371 61.0212C7.80371 33.2761 31.2784 17.5596 60.2358 17.5596C89.1933 17.5596 112.668 33.2761 112.668 61.0212Z" fill="#FCFDEC"/>
</mask>
<g mask="url(#mask0_1178_332)">
<path d="M29.5568 86.1534C69.9303 69.5037 69.0945 38.951 63.6299 25.7559C32.0944 -20.3751 -9.45766 38.6363 -26.2917 73.9084C-24.4979 84.9274 -10.8168 102.803 29.5568 86.1534Z" fill="#1D1A1B"/>
</g>
<mask id="mask1_1178_332" style="mask-type:alpha" maskUnits="userSpaceOnUse" x="7" y="17" width="106" height="95">
<path d="M7.80374 61.0212C7.80374 88.7664 31.2784 111.258 60.2359 111.258C89.1933 111.258 112.668 88.7664 112.668 61.0212C112.668 33.2761 89.1933 17.5596 60.2359 17.5596C31.2784 17.5596 7.80374 33.2761 7.80374 61.0212Z" fill="#FCFDEC"/>
</mask>
<g mask="url(#mask1_1178_332)">
<path d="M90.9154 86.1534C50.5418 69.5037 51.3777 38.951 56.8423 25.7559C88.3778 -20.3751 129.93 38.6363 146.764 73.9084C144.97 84.9274 131.289 102.803 90.9154 86.1534Z" fill="#1D1A1B"/>
</g>
<ellipse cx="35.2827" cy="68.6514" rx="4.06715" ry="4.27049" fill="#A6D051"/>
<ellipse cx="84.3284" cy="68.6514" rx="4.06715" ry="4.27049" fill="#A6D051"/>
<path d="M59.9921 86.3291L68.8624 79.013H51.1218L59.9921 86.3291Z" fill="#F5A5E3"/>
<mask id="mask2_1178_332" style="mask-type:alpha" maskUnits="userSpaceOnUse" x="7" y="17" width="106" height="95">
<path d="M7.80374 61.0212C7.80374 88.7664 31.2784 111.258 60.2359 111.258C89.1933 111.258 112.668 88.7664 112.668 61.0212C112.668 33.2761 89.1933 17.5596 60.2359 17.5596C31.2784 17.5596 7.80374 33.2761 7.80374 61.0212Z" fill="#FCFDEC"/>
</mask>
<g mask="url(#mask2_1178_332)">
<rect x="15.3484" y="13.1553" width="85.0732" height="30.6964" fill="#1D1A1B"/>
</g>
</svg>
