<svg width="98" height="74" viewBox="0 0 98 74" fill="none" xmlns="http://www.w3.org/2000/svg">
<circle cx="26.9313" cy="26.9313" r="26.9313" transform="matrix(-1 0 0 1 98 0)" fill="#94C1BD"/>
<circle cx="2.24427" cy="2.24427" r="2.24427" transform="matrix(-1 0 0 1 89.771 28.4275)" fill="#1F191B"/>
<circle cx="2.24427" cy="2.24427" r="2.24427" transform="matrix(-1 0 0 1 61.3435 28.4275)" fill="#1F191B"/>
<path d="M82.4786 38.0225C82.1585 38.5075 81.5265 38.6633 81.0226 38.3995L80.924 38.341L80.7128 38.2081C79.5512 37.5074 76.803 36.2824 73.8346 36.2823C70.6798 36.2823 68.0867 37.668 67.2603 38.2972C66.7673 38.6726 66.0629 38.5775 65.6874 38.0846C65.312 37.5916 65.4071 36.8872 65.9 36.5117C67.0386 35.6447 70.0981 34.0381 73.8346 34.0381C77.3266 34.0381 80.481 35.4426 81.9 36.3035L82.1601 36.4679L82.2528 36.5358C82.6934 36.8955 82.7986 37.5376 82.4786 38.0225Z" fill="#1F191B"/>
<circle cx="26.9313" cy="46.3817" r="26.9313" fill="#F3E65D"/>
<circle cx="10.4733" cy="50.1222" r="2.24427" fill="#1F191B"/>
<circle cx="38.9008" cy="50.1222" r="2.24427" fill="#1F191B"/>
<path d="M15.5214 53.9926C15.8415 53.5077 16.4735 53.3518 16.9774 53.6156L17.076 53.6741L17.2872 53.8071C18.4488 54.5077 21.197 55.7327 24.1654 55.7328C27.3202 55.7328 29.9133 54.3471 30.7397 53.7179C31.2327 53.3425 31.9371 53.4376 32.3126 53.9305C32.688 54.4235 32.5929 55.1279 32.1 55.5034C30.9614 56.3705 27.9019 57.9771 24.1654 57.9771C20.6734 57.977 17.519 56.5725 16.1 55.7116L15.8399 55.5472L15.7472 55.4793C15.3066 55.1197 15.2014 54.4775 15.5214 53.9926Z" fill="#1F191B"/>
</svg>
