<svg width="114" height="114" viewBox="0 0 114 114" fill="none" xmlns="http://www.w3.org/2000/svg">
<circle cx="57" cy="57" r="57" fill="#1A3DBD"/>
<mask id="mask0_1082_39" style="mask-type:alpha" maskUnits="userSpaceOnUse" x="0" y="0" width="114" height="114">
<circle cx="57" cy="57" r="57" fill="#1E3896"/>
</mask>
<g mask="url(#mask0_1082_39)">
<path d="M82.3884 45.0711C89.9484 42.6441 93.8609 48.3381 94.8721 51.4881L100.265 68.2882C102.11 82.7723 93.6372 90.4622 85.8988 93.8872L107.264 160.438C106.435 161.249 104.176 163.03 101.465 164.024L101.469 164.036C101.381 164.064 101.292 164.088 101.204 164.114C101.117 164.144 101.031 164.177 100.944 164.205L100.94 164.193C98.1569 164.962 95.2845 164.829 94.1384 164.652L72.7734 98.1009C64.4873 99.8205 53.1206 98.4999 46.1898 85.6482L40.7961 68.8472C39.785 65.6971 39.6528 58.7908 47.2122 56.3638C54.7721 53.9368 58.6852 59.6294 59.6966 62.7796C60.9875 65.0251 64.8701 69.0526 70.1982 67.5078C75.4175 65.6579 76.2287 60.1311 75.9716 57.5558C74.9604 54.4057 74.8282 47.4982 82.3884 45.0711Z" fill="#FCFCFC"/>
<circle cx="61.0584" cy="81.4538" r="3.85981" transform="rotate(-17.7983 61.0584 81.4538)" fill="#1F191B"/>
<circle cx="3.85981" cy="3.85981" r="3.85981" transform="matrix(-0.952138 0.305667 0.305667 0.952138 88.2293 68.6772)" fill="#1F191B"/>
</g>
<path d="M26.3625 51.2351L26.3588 51.385C26.2825 52.9252 25.0374 54.1499 23.5125 54.1499C21.9877 54.1499 20.7426 52.9252 20.6663 51.385L20.6625 51.2351V25.0022C20.6625 23.3924 21.9385 22.0874 23.5125 22.0874C25.0866 22.0874 26.3625 23.3924 26.3625 25.0022L26.3625 51.2351Z" fill="white"/>
<path d="M32.775 24.0092V51.5156C32.775 53.2007 34.8156 54.0668 36.0515 52.9061L50.6961 39.1529C51.5013 38.3968 51.5013 37.128 50.6961 36.3719L36.0515 22.6187C34.8156 21.458 32.775 22.3241 32.775 24.0092Z" fill="white"/>
</svg>
