<svg width="102" height="108" viewBox="0 0 102 108" fill="none" xmlns="http://www.w3.org/2000/svg">
<ellipse cx="52.8397" cy="66.2449" rx="43.5" ry="34.1577" transform="rotate(-9.56445 52.8397 66.2449)" fill="#53746C"/>
<path d="M68.4998 46.7306C74.2922 47.1364 86.1325 51.9311 87.1592 67.8634C87.4102 70.8514 87.179 78.4001 84.7357 87.4218C78.1104 93.5848 69.0023 98.1608 58.5156 99.9278C49.136 101.508 40.0619 100.604 32.3263 97.7828C26.4292 89.5355 23.4584 81.8054 22.6728 78.7293C18.4219 63.3403 28.0372 54.9303 33.3768 52.6488L52.7811 60.6293L68.4998 46.7306Z" fill="#F0DFC8"/>
<path d="M11.5135 34.1999C7.52568 37.2403 10.6794 50.9199 12.7547 57.3796L31.9726 41.4109C30.3553 38.8412 27.1122 35.4075 23.8958 33.8899C21.43 32.7264 15.5013 31.1595 11.5135 34.1999Z" fill="#53746C"/>
<path d="M81.5706 22.3955C86.3346 23.9613 87.8377 37.919 87.9938 44.7021L64.6043 35.9127C65.2901 32.9549 67.229 28.648 69.7704 26.1602C71.7188 24.2529 76.8067 20.8297 81.5706 22.3955Z" fill="#53746C"/>
<circle cx="43.4353" cy="77.7252" r="2.62752" transform="rotate(-9.56445 43.4353 77.7252)" fill="#1F191B"/>
<circle cx="74.5272" cy="72.4862" r="2.62752" transform="rotate(-9.56445 74.5272 72.4862)" fill="#1F191B"/>
<path d="M49.0805 80.7235C49.247 80.1004 49.8869 79.7304 50.51 79.8969C57.1872 81.6809 63.5696 80.81 69.0974 76.7823C69.6186 76.4026 70.3493 76.5176 70.729 77.0388C71.1087 77.56 70.9938 78.2907 70.4726 78.6704C64.304 83.1649 57.176 84.0951 49.9072 82.153C49.2841 81.9865 48.9141 81.3466 49.0805 80.7235Z" fill="#1F191B"/>
<path d="M40.3564 7.97347C59.2444 6.21196 66.3293 20.966 67.5107 28.5632C64.2653 38.8209 55.6799 42.1032 51.7929 42.4621C41.4289 44.2085 33.2313 40.6554 30.428 38.6606L28.8852 34.7757C27.6172 34.2788 25.5877 42.7328 24.7314 47.022C22.9817 56.3171 20.2433 60.2128 19.0928 60.9988C17.4469 63.8815 15.7503 61.6607 15.1077 60.19C13.6094 59.7319 13.6103 54.8171 13.798 52.417C13.987 50.7272 11.5912 44.0057 10.3697 40.8561C10.8615 36.7468 13.18 28.8361 14.2778 25.3944C18.1314 11.7184 33.2692 8.0821 40.3564 7.97347Z" fill="#71B9F0"/>
<ellipse cx="17.4135" cy="63.332" rx="4.37919" ry="3.7953" transform="rotate(1.56888 17.4135 63.332)" fill="#D1E6E9"/>
<path d="M68.6876 35.5482C65.553 40.8632 55.3242 44.5316 50.5021 45.3442C45.6799 46.1567 34.8138 46.0427 30.1106 42.0484L28.8851 34.7756C31.3211 36.7752 38.8507 40.5757 49.3991 38.7983C59.9475 37.0209 65.8159 30.9629 67.4621 28.2754L68.6876 35.5482Z" fill="#D1E6E9"/>
<path d="M31.642 26.8837C32.0567 26.519 32.0973 25.8872 31.7326 25.4724C31.3679 25.0576 30.7361 25.017 30.3213 25.3817L31.642 26.8837ZM28.8852 34.7757L29.8713 34.6095C29.8301 34.365 29.7565 34.1028 29.6882 33.8679C29.6147 33.6154 29.5405 33.3723 29.4681 33.0982C29.3261 32.5607 29.2125 31.9788 29.2179 31.3514C29.2282 30.1548 29.6712 28.6165 31.642 26.8837L30.9816 26.1327L30.3213 25.3817C27.9601 27.4579 27.2336 29.5213 27.218 31.3342C27.2105 32.2115 27.3699 32.9861 27.5344 33.609C27.6153 33.9151 27.7028 34.2031 27.7678 34.4266C27.838 34.6678 27.8797 34.8265 27.8991 34.9418L28.8852 34.7757Z" fill="#5EAAE5"/>
</svg>
