<svg width="103" height="103" viewBox="0 0 103 103" fill="none" xmlns="http://www.w3.org/2000/svg">
<rect y="29.1758" width="103" height="73" rx="8" fill="#5E5E5E"/>
<path d="M48.9431 26.7703L48.8056 26.9225C47.4296 28.5305 47.5422 30.9531 49.096 32.4251C50.6497 33.897 53.0749 33.8786 54.6062 32.4177L54.7507 32.2722L67.249 19.0796C68.7683 17.4759 68.6999 14.9441 67.0962 13.4248C65.4925 11.9055 62.9607 11.9739 61.4414 13.5776L48.9431 26.7703Z" fill="#5E5E5E"/>
<path d="M21.7391 1.26132C23.2516 -0.348788 25.7823 -0.427933 27.3924 1.08456L54.5623 26.607C56.1722 28.1196 56.2516 30.6513 54.7391 32.2613C53.2266 33.8714 50.6949 33.9496 49.0848 32.4371L21.9159 6.91464C20.3058 5.40211 20.2266 2.87145 21.7391 1.26132Z" fill="#5E5E5E"/>
<rect x="8" y="38" width="71" height="55" rx="10" fill="#F6F6F6"/>
<circle cx="91" cy="56.1758" r="6" fill="#8AC979"/>
<circle cx="91" cy="72.1758" r="6" fill="#C97979"/>
</svg>
